<svg width="48" height="48" viewBox="0 0 48 48" fill="none" xmlns="http://www.w3.org/2000/svg">
<path d="M18.5381 30.5791L34.4957 18.7852C35.2781 18.207 36.3963 18.4325 36.7691 19.3307C38.731 24.0671 37.8544 29.7591 33.951 33.6671C30.0476 37.5751 24.6164 38.4322 19.6522 36.4802L14.2292 38.9941C22.0074 44.3169 31.4525 43.0005 37.3548 37.0872C42.0364 32.3999 43.4864 26.0108 42.1306 20.2493L42.1428 20.2615C40.1768 11.7974 42.6263 8.41428 47.6437 1.4962C47.7624 1.33217 47.8812 1.16813 48 1L41.3973 7.61051V7.59001L18.534 30.5833" fill="white"/>
<path d="M15.2451 33.4457C9.66228 28.1063 10.6248 19.8432 15.3884 15.0781C18.9108 11.5514 24.682 10.112 29.7199 12.228L35.1307 9.72654C34.1559 9.0212 32.9066 8.26255 31.473 7.72944C24.9933 5.05982 17.2356 6.38847 11.9683 11.658C6.90163 16.7307 5.30831 24.5305 8.04439 31.1861C10.0882 36.1604 6.73778 39.6788 3.36275 43.2302C2.16674 44.4891 0.966632 45.7481 0 47.0808L15.2409 33.4497" fill="white"/>
</svg>
