<svg width="512" height="512" viewBox="0 0 512 512" fill="none" xmlns="http://www.w3.org/2000/svg">
<path d="M255.534 284.507H74.4384C58.7404 284.507 46 271.71 46 255.942V96.7778C46 84.8947 53.394 74.2685 64.4281 70.0409L245.523 1.82754C254.283 -1.486 264.065 -0.22914 271.687 5.14109C279.308 10.5113 283.972 19.1951 283.972 28.5644V255.942C283.972 271.71 271.232 284.507 255.534 284.507ZM102.877 227.377H227.095V69.8124L102.877 116.659V227.491V227.377Z" fill="white"/>
<path d="M255.534 512C251.211 512 246.775 510.972 242.793 509.029C234.717 505.03 46 408.366 46 256.057C46 240.289 58.7404 227.492 74.4384 227.492H436.743C452.441 227.492 465.181 240.289 465.181 256.057C465.181 408.366 276.351 505.03 268.388 509.029C264.407 511.086 260.084 512 255.648 512H255.534ZM106.062 284.508C124.831 367.918 220.611 430.418 255.534 450.757C290.456 430.418 386.236 367.918 405.006 284.508H106.062Z" fill="white"/>
<path d="M436.743 284.508H255.648C239.95 284.508 227.209 271.711 227.209 255.943V28.5651C227.209 19.1958 231.759 10.3977 239.495 5.14177C247.116 -0.228458 256.899 -1.37106 265.658 1.82823L446.753 70.0416C457.901 74.2692 465.181 84.8954 465.181 96.7784V255.943C465.181 271.711 452.441 284.508 436.743 284.508ZM283.972 227.378H408.191V116.545L283.972 69.6988V227.378Z" fill="white"/>
</svg>
