<svg width="48" height="48" viewBox="0 0 48 48" fill="none" xmlns="http://www.w3.org/2000/svg">
<path d="M24 0C37.2548 0 48 10.7452 48 24C48 37.2548 37.2548 48 24 48C10.7452 48 0 37.2548 0 24C0 10.7452 10.7452 0 24 0ZM23.9902 12.6758C23.9902 12.6758 13.8747 12.6753 11.3359 13.335C9.97669 13.7148 8.85733 14.8346 8.47754 16.2139C7.82063 18.7422 7.81837 23.9667 7.81836 24.0098C7.81836 24.0098 7.81792 29.2873 8.47754 31.7861C8.85732 33.1653 9.95678 34.2646 11.3359 34.6445C13.8947 35.3242 23.9902 35.3242 23.9902 35.3242C24.0475 35.3242 34.1326 35.3228 36.6641 34.665C38.0432 34.2852 39.142 33.2057 39.502 31.8066C40.179 29.2977 40.1816 24.071 40.1816 24.0303C40.1816 24.0303 40.2016 18.7526 39.502 16.2139C39.1421 14.8346 38.0433 13.7349 36.6641 13.375C34.1326 12.6773 24.0475 12.6758 23.9902 12.6758ZM29.1875 24.0098L20.7715 28.8477V19.1523L29.1875 24.0098Z" fill="white"/>
</svg>
